<?xml version="1.0" standalone="no"?>
<!DOCTYPE svg PUBLIC "-//W3C//DTD SVG 20010904//EN"
 "http://www.w3.org/TR/2001/REC-SVG-20010904/DTD/svg10.dtd">
<svg version="1.0" xmlns="http://www.w3.org/2000/svg"
 width="534.000000pt" height="386.000000pt" viewBox="0 0 534.000000 386.000000"
 preserveAspectRatio="xMidYMid meet">

<g transform="translate(0.000000,386.000000) scale(0.100000,-0.100000)"
fill="#000000" stroke="none">
<path d="M806 3441 c-10 -11 -16 -26 -13 -33 4 -10 6 -10 6 1 1 8 8 23 18 33
9 10 14 18 11 18 -3 0 -13 -9 -22 -19z"/>
<path d="M1008 3303 c12 -2 30 -2 40 0 9 3 -1 5 -23 4 -22 0 -30 -2 -17 -4z"/>
<path d="M1150 3271 c86 -24 178 -64 256 -111 77 -46 200 -139 233 -174 14
-14 34 -26 45 -26 17 0 18 2 6 10 -13 9 -13 10 0 11 8 0 4 5 -10 9 l-25 8 25
1 c19 1 22 3 10 10 -8 6 -18 7 -24 4 -5 -3 -6 -1 -2 5 16 27 -259 187 -399
231 -117 37 -130 41 -156 40 -13 0 5 -8 41 -18z"/>
<path d="M1728 1053 c12 -2 32 -2 45 0 12 2 2 4 -23 4 -25 0 -35 -2 -22 -4z"/>
</g>
</svg>
